<svg xmlns="http://www.w3.org/2000/svg" id="Layer_1" x="0" y="0" enable-background="new -145.2 359 325.4 77.2" version="1.1" viewBox="-145.2 359 325.4 77.2" xml:space="preserve"><g><g><path fill="none" stroke="#FFF" stroke-linecap="round" stroke-linejoin="round" stroke-miterlimit="10" stroke-width="7" d="M-79.1,393.1c-7.2,5-14.7,3.7-23.2-3.4c-4.9-4.1-11.2-2.8-15.4-1.5c-2.6,0.8-6.3,0.7-9.5,0.1c-14-2.9-10.9,6-8.3,14 c4.8,14.6-3.2,18-6,12.8c-1.8,6.6,7.1,8.6,10.9,7.7c6-1.4,14.1-2.2,19-0.6c9.5,2.9,13.1,0.5,11.5-2.6c-0.5-1-0.2-2.4,0.6-3.1 c2.8-2.4,5.3-0.4,8-1.9c2.1-1.2,2.1-3.9-1.2-5.5c-1.7-0.8-1.6-2.9,0.2-3.8c3.7-2,8.8-1,10-5.1C-81.9,398.7-80.7,395-79.1,393.1z"/><path fill="none" stroke="#FFF" stroke-linecap="round" stroke-linejoin="round" stroke-miterlimit="10" stroke-width="7" d="M-112.4,367.4c-1.1-0.6-4.3-2.6-5.1-3.1c-0.8-0.5-2.7-1.9-4.8-1.9s-4,1.4-4.8,1.9c-0.8,0.5-4,2.5-5.1,3.1c-0.8,0.5-3.7,2-3.7,6.3 c0,1.3,0,3.6,0,4.5c0,2.8,1.6,5,4.5,6.4c1,0.5,1.8,1.3,1.8,3.5c0,0.9,0.4,1.2,0.9,1.2h0.7c0.6,0,1,0.2,1,1.3c0,0.6,0,2.1,0,2.1 v37.2l2.7,2.8h1.2l5.7-5.8v-34.2c0,0,0-1.5,0-2.1c0-1,0.3-1.3,1-1.3h0.7c0.6,0,0.9-0.2,0.9-1.2c0-2.1,0.8-3,1.8-3.5 c2.9-1.5,4.5-3.6,4.5-6.4c0-1,0-3.2,0-4.5C-108.7,369.5-111.6,367.9-112.4,367.4z"/></g><linearGradient id="SVGID_1_" x1="-227.719" x2="-165.056" y1="2220.796" y2="2220.796" gradientTransform="matrix(1 0 0 1 86 -1815.5)" gradientUnits="userSpaceOnUse"><stop offset="0" style="stop-color:#fdfdfd"/><stop offset=".145" style="stop-color:#f4f5f5"/><stop offset=".684" style="stop-color:#d9dbdb"/><stop offset="1" style="stop-color:#cfd1d1"/></linearGradient><path fill="url(#SVGID_1_)" d="M-79.1,393.1c-7.2,5-14.7,3.7-23.2-3.4c-4.9-4.1-11.2-2.8-15.4-1.5c-2.6,0.8-6.3,0.7-9.5,0.1 c-14-2.9-10.9,6-8.3,14c4.8,14.6-3.2,18-6,12.8c-1.8,6.6,7.1,8.6,10.9,7.7c6-1.4,14.1-2.2,19-0.6c9.5,2.9,13.1,0.5,11.5-2.6 c-0.5-1-0.2-2.4,0.6-3.1c2.8-2.4,5.3-0.4,8-1.9c2.1-1.2,2.1-3.9-1.2-5.5c-1.7-0.8-1.6-2.9,0.2-3.8c3.7-2,8.8-1,10-5.1 C-81.9,398.7-80.7,395-79.1,393.1z"/><linearGradient id="SVGID_2_" x1="192.32" x2="184.047" y1="1507.883" y2="1507.883" gradientTransform="matrix(1 0 0 1 -302 -1102)" gradientUnits="userSpaceOnUse"><stop offset="0" style="stop-color:#e6e6e6"/><stop offset="1" style="stop-color:#b2b3b3"/></linearGradient><path fill="url(#SVGID_2_)" d="M-115,391.3c0,5,0.7,22.8,4.5,30.4l-8.7-0.2v-31.5L-115,391.3z"/><linearGradient id="SVGID_3_" x1="-200.863" x2="-193.862" y1="2227.381" y2="2207.88" gradientTransform="matrix(1 0 0 1 86 -1815.5)" gradientUnits="userSpaceOnUse"><stop offset="0" style="stop-color:#f6f6f6"/><stop offset="1" style="stop-color:#b2b3b3"/></linearGradient><path fill="url(#SVGID_3_)" d="M-134.6,403.1c-2.8-7.5-6.5-16.6,7.5-13.7c3.2,0.7,6.9,0.7,9.5-0.1c4.3-1.3,10-2.4,14.5,1.5 c8.9,7.7,16.9,8.3,24.1,3.3c-1.6,1.9-3.1,5.6-3.3,7.1c-0.2,1.3-1.1,1.9-2.4,2.4c-18.5,7.5-15.4-5.3-21.4-9.5 c-3.2-2.2-7.7-2.1-11.2-0.8c-3.2,1.2-6.4,0.9-9.8-0.4C-132.9,390.8-136.7,391.9-134.6,403.1z"/><line x1="-117.4" x2="-117.4" y1="421.8" y2="390.6" fill="none" stroke="#FFF" stroke-miterlimit="10" stroke-width="3.5"/><g opacity=".75"><path fill="#FFF" d="M-110.3,389c2.7,0,4.9,0.7,6.8,2.3c5.5,4.6,10.6,6.8,15.6,6.8c1.5,0,2.9-0.2,4.4-0.6 c-0.3,0.9-0.6,1.6-0.7,2.1c-0.4,1.4-1.6,1.8-4.4,2.4c-1.5,0.3-3.1,0.7-4.7,1.5c-1.6,0.8-2.5,2.3-2.5,3.9c0,1.5,0.9,2.8,2.4,3.5 c1.2,0.5,1.5,1.1,1.5,1.4c0,0.3-0.3,0.5-0.5,0.6c-0.6,0.3-1.2,0.4-2.1,0.4c-0.2,0-0.3,0-0.5,0c-0.2,0-0.4,0-0.5,0 c-1.6,0-3.4,0.2-5.2,1.7c-1.5,1.3-2,3.7-1.1,5.6c0.1,0.3,0.1,0.4,0.1,0.4c-0.1,0.1-0.8,0.6-2.6,0.6c-1.8,0-4.1-0.4-6.7-1.2 c-2-0.6-4.5-0.9-7.5-0.9c-3.8,0-8.4,0.6-12.6,1.5c-0.4,0.1-0.9,0.1-1.5,0.1c-1.9,0-4.2-0.5-5.7-1.6c1.7,0,3.3-0.9,4.4-2.4 c1.3-1.8,3.2-6.3,0.2-15.3l-0.1-0.2c-1.3-3.9-2.9-8.8-1.5-10.7c0.5-0.7,1.6-1.1,3.4-1.1c1.2,0,2.6,0.2,4.3,0.5 c1.8,0.4,3.6,0.6,5.4,0.6c1.9,0,3.7-0.2,5.1-0.7C-115.4,389.7-112.9,389-110.3,389 M-110.3,387c-2.7,0-5.2,0.6-7.3,1.3 c-1.3,0.4-2.9,0.6-4.6,0.6c-1.6,0-3.4-0.2-5-0.5c-1.9-0.4-3.4-0.6-4.7-0.6c-8.5,0-5.9,7.7-3.6,14.6c3.4,10.4,0.3,15.1-2.7,15.1 c-1.2,0-2.5-0.8-3.3-2.3c-1.5,5.6,4.8,7.9,9,7.9c0.7,0,1.4-0.1,2-0.2c3.7-0.8,8.1-1.5,12.2-1.5c2.5,0,4.9,0.2,6.9,0.8 c3,0.9,5.5,1.3,7.3,1.3c4,0,5.3-1.8,4.2-3.9c-0.5-1-0.2-2.4,0.6-3.1c1.4-1.2,2.7-1.3,3.9-1.3c0.3,0,0.7,0,1,0c1,0,2-0.1,3.1-0.7 c2.1-1.2,2.1-3.9-1.2-5.5c-1.7-0.8-1.6-2.9,0.2-3.8c3.7-2,8.8-1,10-5.1c0.4-1.5,1.7-5.2,3.3-7.1c-2.9,2-5.9,3-8.9,3 c-4.5,0-9.2-2.2-14.3-6.4C-104.7,387.7-107.6,387-110.3,387L-110.3,387z M-79.1,393.1L-79.1,393.1L-79.1,393.1z"/></g><path fill="none" stroke="#034672" stroke-linecap="round" stroke-linejoin="round" stroke-miterlimit="10" stroke-width="2" d="M-79.1,393.1c-7.2,5-14.7,3.7-23.2-3.4c-4.9-4.1-11.2-2.8-15.4-1.5c-2.6,0.8-6.3,0.7-9.5,0.1c-14-2.9-10.9,6-8.3,14 c4.8,14.6-3.2,18-6,12.8c-1.8,6.6,7.1,8.6,10.9,7.7c6-1.4,14.1-2.2,19-0.6c9.5,2.9,13.1,0.5,11.5-2.6c-0.5-1-0.2-2.4,0.6-3.1 c2.8-2.4,5.3-0.4,8-1.9c2.1-1.2,2.1-3.9-1.2-5.5c-1.7-0.8-1.6-2.9,0.2-3.8c3.7-2,8.8-1,10-5.1C-81.9,398.7-80.7,395-79.1,393.1z"/><path fill="#034672" d="M-134.6,402.1c-2.8-7.5-6.5-16.6,7.5-13.7c3.2,0.7,6.9,0.7,9.5-0.1c4.3-1.3,10-2.4,14.5,1.5 c8.9,7.7,16.9,8.3,24.1,3.3c-1.6,1.9-3.1,5.6-3.3,7.1c-0.2,1.3-1.1,1.9-2.4,2.4c-13.1,4.8-14.1-5.5-20.1-9.7 c-3.2-2.2-9-1.9-12.5-0.6c-3.2,1.2-6.4,0.9-9.8-0.4C-132.9,389.8-136.7,390.9-134.6,402.1z"/><path fill="#FFF" d="M-112.4,367.4c-1.1-0.6-4.3-2.6-5.1-3.1c-0.8-0.5-2.7-1.9-4.8-1.9s-4,1.4-4.8,1.9c-0.8,0.5-4,2.5-5.1,3.1 c-0.8,0.5-3.7,2-3.7,6.3c0,1.3,0,3.6,0,4.5c0,2.8,1.6,5,4.5,6.4c1,0.5,1.8,1.3,1.8,3.5c0,0.9,0.4,1.2,0.9,1.2h0.7 c0.6,0,1,0.2,1,1.3c0,0.6,0,2.1,0,2.1v37.2l2.7,2.8h1.2l5.7-5.8v-34.2c0,0,0-1.5,0-2.1c0-1,0.3-1.3,1-1.3h0.7 c0.6,0,0.9-0.2,0.9-1.2c0-2.1,0.8-3,1.8-3.5c2.9-1.5,4.5-3.6,4.5-6.4c0-1,0-3.2,0-4.5C-108.7,369.5-111.6,367.9-112.4,367.4z"/><linearGradient id="SVGID_4_" x1="-217.904" x2="-187.068" y1="2215.012" y2="2207.345" gradientTransform="matrix(1 0 0 1 86 -1815.5)" gradientUnits="userSpaceOnUse"><stop offset="0" style="stop-color:#b8d7e9"/><stop offset=".332" style="stop-color:#cce3f1"/><stop offset=".694" style="stop-color:#daebf7"/><stop offset="1" style="stop-color:#dfeef9"/></linearGradient><path fill="url(#SVGID_4_)" d="M-112.4,367.4c-1.1-0.6-4.3-2.6-5.1-3.1c-0.8-0.5-2.7-1.9-4.8-1.9v69.3l4.8-4.9v-34.2 c0,0,0-1.5,0-2.1c0-1,0.3-1.3,1-1.3h0.7c0.6,0,0.9-0.2,0.9-1.2c0-2.1,0.8-3,1.8-3.5c2.9-1.5,4.5-3.6,4.5-6.4c0-1,0-3.2,0-4.5 C-108.7,369.5-111.6,367.9-112.4,367.4z"/><linearGradient id="SVGID_5_" x1="-214.944" x2="-206.319" y1="2190.841" y2="2233.093" gradientTransform="matrix(1 0 0 1 86 -1815.5)" gradientUnits="userSpaceOnUse"><stop offset="0" style="stop-color:#f1f9fe"/><stop offset=".425" style="stop-color:#e9f5fd"/><stop offset="1" style="stop-color:#e4f3fd"/></linearGradient><path fill="url(#SVGID_5_)" d="M-122.3,362.5c-2.1,0-4,1.4-4.8,1.9c-0.8,0.5-4,2.5-5.1,3.1c-0.8,0.5-3.7,2-3.7,6.3 c0,1.3,0,3.6,0,4.5c0,2.8,1.6,5,4.5,6.4c1,0.5,1.8,1.3,1.8,3.5c0,0.9,0.4,1.2,0.9,1.2h0.7c0.6,0,1,0.2,1,1.3c0,0.6,0,2.1,0,2.1 v37.2l2.7,2.8h1.2l0.9-0.9L-122.3,362.5L-122.3,362.5z"/><path fill="none" stroke="#FFF" stroke-miterlimit="10" stroke-width="2" d="M-122.6,362.5c1.9,0.9,3.4,2,4.2,2.4 c0.8,0.5,4,2.5,5.1,3.1c0.8,0.5,3.7,2,3.7,6.3c0,1.3,0,2.8,0,3.8c0,2.8-1.6,5-4.5,6.4c-1,0.5-1.8,1.4-1.8,3.6v1.2"/><path fill="none" stroke="#034672" stroke-miterlimit="10" stroke-width="2" d="M-112.4,367.4c-1.1-0.6-4.3-2.6-5.1-3.1 c-0.8-0.5-2.7-1.9-4.8-1.9s-4,1.4-4.8,1.9c-0.8,0.5-4,2.5-5.1,3.1c-0.8,0.5-3.7,2-3.7,6.3c0,1.3,0,3.6,0,4.5c0,2.8,1.6,5,4.5,6.4 c1,0.5,1.8,1.3,1.8,3.5c0,0.9,0.4,1.2,0.9,1.2h0.7c0.6,0,1,0.2,1,1.3c0,0.6,0,2.1,0,2.1v37.2l2.7,2.8h1.2l5.7-5.8v-34.2 c0,0,0-1.5,0-2.1c0-1,0.3-1.3,1-1.3h0.7c0.6,0,0.9-0.2,0.9-1.2c0-2.1,0.8-3,1.8-3.5c2.9-1.5,4.5-3.6,4.5-6.4c0-1,0-3.2,0-4.5 C-108.7,369.5-111.6,367.9-112.4,367.4z"/><path fill="#E9F6FE" stroke="#034672" stroke-miterlimit="10" stroke-width="2" d="M-107.5,392.7"/><g><linearGradient id="SVGID_6_" x1="-106.489" x2="-106.489" y1="2203.667" y2="2254.552" gradientTransform="matrix(1 0 0 1 86 -1815.5)" gradientUnits="userSpaceOnUse"><stop offset="0" style="stop-color:#fffffe"/><stop offset=".481" style="stop-color:#f2f1f1"/><stop offset="1" style="stop-color:#e9e7e8"/></linearGradient><path fill="url(#SVGID_6_)" d="M-14.5,407.6h-11.6c0.3,2.3,1,3.9,2.1,4.7s2.9,1.2,5.5,1.2c3.4,0,7.4-0.2,12-0.7l0.9,6 c-3.3,1.6-8,2.4-14,2.4c-6,0-10.3-1.3-12.9-3.9c-2.6-2.6-3.8-6.9-3.8-12.9c0-6.3,1.2-10.7,3.7-13.2c2.5-2.5,6.7-3.8,12.6-3.8 c5.3,0,9.2,0.9,11.6,2.8c2.4,1.8,3.6,4.7,3.6,8.4c0,3-0.8,5.2-2.3,6.7C-8.5,406.8-11,407.6-14.5,407.6z M-26.3,401.8h9.1 c1.2,0,2-0.3,2.4-0.8c0.4-0.6,0.6-1.4,0.6-2.5c0-1.5-0.4-2.6-1.2-3.2c-0.8-0.6-2.2-0.9-4.3-0.9c-2.5,0-4.2,0.5-5.1,1.5 C-25.6,396.9-26.1,398.8-26.3,401.8z"/><linearGradient id="SVGID_7_" x1="-72.864" x2="-72.864" y1="2203.667" y2="2254.55" gradientTransform="matrix(1 0 0 1 86 -1815.5)" gradientUnits="userSpaceOnUse"><stop offset="0" style="stop-color:#fffffe"/><stop offset=".481" style="stop-color:#f2f1f1"/><stop offset="1" style="stop-color:#e9e7e8"/></linearGradient><path fill="url(#SVGID_7_)" d="M31,388.3l-11.4,32.6c-0.6,1.7-1.4,3.3-2.2,4.8c-0.9,1.5-2,2.9-3.4,4.3c-1.4,1.4-3.1,2.4-5.2,3 c-2.1,0.7-4.4,0.8-6.9,0.5L1,427.8c2.6-0.7,4.6-1.6,6.1-2.7c1.5-1.1,2.6-2.6,3.5-4.5l0.1-0.3H8.9c-1.6,0-2.6-0.8-3.1-2.3 l-10.5-29.8H5.6l6,20.8c0.4,1.5,0.7,3.1,1,4.8h0.8c0.1-0.5,0.3-1.3,0.7-2.4s0.5-1.9,0.7-2.4l5.9-20.8L31,388.3L31,388.3z"/><linearGradient id="SVGID_8_" x1="-41.775" x2="-41.775" y1="2203.667" y2="2254.552" gradientTransform="matrix(1 0 0 1 86 -1815.5)" gradientUnits="userSpaceOnUse"><stop offset="0" style="stop-color:#fffffe"/><stop offset=".481" style="stop-color:#f2f1f1"/><stop offset="1" style="stop-color:#e9e7e8"/></linearGradient><path fill="url(#SVGID_8_)" d="M57.6,412.8l0.9,6.3c-3.3,1.4-7.5,2.1-12.4,2.1c-5.9,0-10.1-1.3-12.5-3.8 c-2.4-2.5-3.6-6.9-3.6-13.1c0-6.2,1.2-10.6,3.6-13.1c2.4-2.5,6.6-3.8,12.6-3.8c4.9,0,8.8,0.7,11.9,2l-1,6 c-4.7-0.1-7.8-0.1-9.2-0.1c-3,0-5,0.6-6.1,1.9c-1.1,1.3-1.7,3.6-1.7,7.2c0,3.5,0.6,5.9,1.7,7.2c1.1,1.3,3.1,1.9,6.1,1.9 C51.6,413.4,54.9,413.2,57.6,412.8z"/><linearGradient id="SVGID_9_" x1="8.972" x2="8.972" y1="2203.667" y2="2254.553" gradientTransform="matrix(1 0 0 1 86 -1815.5)" gradientUnits="userSpaceOnUse"><stop offset="0" style="stop-color:#fffffe"/><stop offset=".481" style="stop-color:#f2f1f1"/><stop offset="1" style="stop-color:#e9e7e8"/></linearGradient><path fill="url(#SVGID_9_)" d="M95,387.4c6,0,10.2,1.3,12.7,3.9c2.5,2.6,3.7,7,3.7,13.1c0,6.2-1.2,10.5-3.7,13.1 c-2.5,2.5-6.7,3.8-12.7,3.8c-6,0-10.3-1.3-12.8-3.8c-2.5-2.5-3.7-6.9-3.7-13.1c0-6.2,1.2-10.6,3.7-13.2 C84.7,388.7,89,387.4,95,387.4z M95,394.6c-2.6,0-4.3,0.6-5.1,2c-0.9,1.3-1.3,3.9-1.3,7.8c0,3.8,0.4,6.4,1.3,7.7 c0.9,1.3,2.6,2,5.1,2c2.5,0,4.2-0.7,5.1-2c0.9-1.3,1.3-3.9,1.3-7.7c0-3.9-0.4-6.5-1.3-7.8C99.2,395.3,97.5,394.6,95,394.6z"/><linearGradient id="SVGID_10_" x1="42.879" x2="42.879" y1="2203.667" y2="2254.552" gradientTransform="matrix(1 0 0 1 86 -1815.5)" gradientUnits="userSpaceOnUse"><stop offset="0" style="stop-color:#fffffe"/><stop offset=".481" style="stop-color:#f2f1f1"/><stop offset="1" style="stop-color:#e9e7e8"/></linearGradient><path fill="url(#SVGID_10_)" d="M115.9,395.5l-0.9-6.5c5.8-1,11.4-1.6,16.7-1.6c4.3,0,7.5,0.9,9.6,2.6c2,1.8,3.1,4.8,3.1,9.2v21.2 h-7.6l-1-4.9c-3.2,3.8-7.2,5.7-11.9,5.7c-3.1,0-5.6-0.8-7.6-2.4s-2.9-3.9-2.9-6.8v-3.3c0-2.6,0.9-4.6,2.6-6 c1.7-1.4,4.1-2.1,7.2-2.1h11.5v-1.4c0-1.6-0.4-2.8-1.1-3.3c-0.7-0.6-2.1-0.8-4.1-0.8C125.9,394.9,121.4,395.1,115.9,395.5z M122.9,409.4v1.2c0,2.2,1.3,3.3,3.8,3.3c2.6,0,5.3-1,8-3.1v-4.5H126C124,406.4,122.9,407.4,122.9,409.4z"/><linearGradient id="SVGID_11_" x1="-136.063" x2="-136.063" y1="2203.667" y2="2254.549" gradientTransform="matrix(1 0 0 1 86 -1815.5)" gradientUnits="userSpaceOnUse"><stop offset="0" style="stop-color:#fffffe"/><stop offset=".481" style="stop-color:#f2f1f1"/><stop offset="1" style="stop-color:#e9e7e8"/></linearGradient><path fill="url(#SVGID_11_)" d="M-43.5,406.1c-0.9-1.6-1.9-2.7-3-3.5v-0.1c1.3-0.9,2.3-1.9,3-3.1l8.3-11.1H-46l-7.9,11.2h-3 c0.3-1.8,0.5-3.7,0.5-5.9v-18.8h-3l-6.7,9.5v36.1h9.6v-10.1c0-1.3-0.2-2.9-0.5-4.8h3.1l9,14.9H-34L-43.5,406.1z"/><linearGradient id="SVGID_12_" x1="-16.68" x2="-16.68" y1="2203.667" y2="2254.551" gradientTransform="matrix(1 0 0 1 86 -1815.5)" gradientUnits="userSpaceOnUse"><stop offset="0" style="stop-color:#fffffe"/><stop offset=".481" style="stop-color:#f2f1f1"/><stop offset="1" style="stop-color:#e9e7e8"/></linearGradient><path fill="url(#SVGID_12_)" d="M76.7,413.2h-2.6c-2.4,0-3.6-1.1-3.6-3.3v-35.1h-3l-6.6,9.4v28.2c0,2.8,0.8,5,2.5,6.5 c1.6,1.5,3.9,2.3,6.8,2.3c3.5,0,6-0.4,7.7-1.3L76.7,413.2z"/><linearGradient id="SVGID_13_" x1="78.107" x2="78.107" y1="2203.667" y2="2254.549" gradientTransform="matrix(1 0 0 1 86 -1815.5)" gradientUnits="userSpaceOnUse"><stop offset="0" style="stop-color:#fffffe"/><stop offset=".481" style="stop-color:#f2f1f1"/><stop offset="1" style="stop-color:#e9e7e8"/></linearGradient><path fill="url(#SVGID_13_)" d="M170.7,406.1c-0.9-1.6-1.9-2.7-3-3.5v-0.1c1.3-0.9,2.3-1.9,3-3.1l8.3-11.1h-10.8l-7.9,11.2h-3 c0.3-1.8,0.5-3.7,0.5-5.9v-18.8h-3l-6.7,9.5v36.1h9.6v-10.1c0-1.3-0.2-2.9-0.5-4.8h3.1l9,14.9h10.8L170.7,406.1z"/></g><linearGradient id="SVGID_14_" x1="-208.281" x2="-208.281" y1="2186.001" y2="2196.169" gradientTransform="matrix(1 0 0 1 86 -1815.5)" gradientUnits="userSpaceOnUse"><stop offset="0" style="stop-color:#00639a"/><stop offset=".235" style="stop-color:#00578a"/><stop offset=".507" style="stop-color:#004d7b"/><stop offset=".717" style="stop-color:#004773"/><stop offset="1" style="stop-color:#00446e"/></linearGradient><polygon fill="url(#SVGID_14_)" points="-122.3 372.4 -131.3 370.4 -132.3 374.1 -122.3 379.2 -112.2 374.1 -113.2 370.4"/><polyline points="-122.3 379.2 -112.2 374.1 -113.2 370.4 -122.3 372.4" enable-background="new" opacity=".2"/><path fill="#034672" d="M-127.2,391.9c3.4,1.3,6.7,1.5,9.8,0.4l-0.3-2.2c-2.6,0.8-6.3,0.7-9.5,0.1L-127.2,391.9z"/><path fill="#034672" d="M-122.6,391.5c-0.4,2.8,1.9,4.7,1.9,7.6C-116.8,394.8-121.7,393.3-122.6,391.5z"/><path fill="#034672" d="M-122.6,391.7c-0.1,3.2-0.4,5.6-1.7,7.2C-126.8,394.2-123.7,392.6-122.6,391.7z"/><circle cx="-122.6" cy="391.7" r="1.6" fill="#034672"/><linearGradient id="SVGID_15_" x1="-197.511" x2="-197.511" y1="2237.772" y2="2237.772" gradientTransform="matrix(1 0 0 1 86 -1815.5)" gradientUnits="userSpaceOnUse"><stop offset="0" style="stop-color:#f6f6f6"/><stop offset=".539" style="stop-color:#e4e4e4"/><stop offset="1" style="stop-color:#dadada"/></linearGradient><path fill="url(#SVGID_15_)" d="M-111.5,422.3"/></g></svg>